<svg xmlns="http://www.w3.org/2000/svg" xmlns:xlink="http://www.w3.org/1999/xlink" width="1420pt" height="310pt" viewBox="0.00 0.00 1419.74 310.40">
<g id="graph0" class="graph" transform="scale(1 1) rotate(0) translate(4 306.4)">
<title>%0</title>
<polygon fill="#ffffff" stroke="transparent" points="-4,4 -4,-306.4 1415.7391,-306.4 1415.7391,4 -4,4"/>
<!-- N21 -->
<g id="node1" class="node">
<title>N21</title>
<g id="a_node1"><a xlink:href="https://alice.example.org" xlink:title="&lt;https://alice.example.org&gt;">
<ellipse fill="none" stroke="#000000" cx="287.7391" cy="-195.6" rx="117.2982" ry="18"/>
<text text-anchor="middle" x="287.7391" y="-191.4" font-family="Times,serif" font-size="14.00" fill="#000000">&lt;https://alice.example.org&gt;</text>
</a>
</g>
</g>
<!-- N4 -->
<g id="node2" class="node">
<title>N4</title>
<g id="a_node2"><a xlink:href="https://alice.example.org" xlink:title="Introduction to Semantic Web">
<polygon fill="#ffff00" stroke="#ffff00" points="417.3647,-124.8 232.1135,-124.8 232.1135,-88.8 417.3647,-88.8 417.3647,-124.8"/>
<text text-anchor="middle" x="324.7391" y="-102.6" font-family="Times,serif" font-size="14.00" fill="#000000">Introduction to Semantic Web</text>
</a>
</g>
</g>
<!-- N3 -->
<g id="node3" class="node">
<title>N3</title>
<g id="a_node3"><a xlink:href="https://alice.example.org" xlink:title="SEM101">
<polygon fill="#ffff00" stroke="#ffff00" points="500.5193,-124.8 434.9589,-124.8 434.9589,-88.8 500.5193,-88.8 500.5193,-124.8"/>
<text text-anchor="middle" x="467.7391" y="-102.6" font-family="Times,serif" font-size="14.00" fill="#000000">SEM101</text>
</a>
</g>
</g>
<!-- N0 -->
<g id="node4" class="node">
<title>N0</title>
<g id="a_node4"><a xlink:href="http://example.org/course1" xlink:title=":course1">
<ellipse fill="none" stroke="#000000" cx="466.7391" cy="-195.6" rx="44.0002" ry="18"/>
<text text-anchor="middle" x="466.7391" y="-191.4" font-family="Times,serif" font-size="14.00" fill="#000000">:course1</text>
</a>
</g>
</g>
<!-- N0&#45;&gt;N4 -->
<g id="edge25" class="edge">
<title>N0-&gt;N4</title>
<g id="a_edge25"><a xlink:href="http://example.org/name" xlink:title=":name">
<path fill="none" stroke="#000000" d="M442.6507,-180.5363C420.6376,-166.7703 387.7345,-146.1943 362.2748,-130.2731"/>
<polygon fill="#000000" stroke="#000000" points="363.9444,-127.1891 353.6099,-124.8544 360.2328,-133.1242 363.9444,-127.1891"/>
</a>
</g>
<g id="a_edge25-label"><a xlink:href="http://example.org/name" xlink:title=":name">
<text text-anchor="middle" x="425.8443" y="-147" font-family="Times,serif" font-size="14.00" fill="#000000">:name</text>
</a>
</g>
</g>
<!-- N0&#45;&gt;N3 -->
<g id="edge26" class="edge">
<title>N0-&gt;N3</title>
<g id="a_edge26"><a xlink:href="http://example.org/courseCode" xlink:title=":courseCode">
<path fill="none" stroke="#000000" d="M466.9463,-177.2006C467.0826,-165.0949 467.2638,-149.0076 467.4185,-135.2674"/>
<polygon fill="#000000" stroke="#000000" points="470.9227,-134.9108 467.5356,-124.872 463.9231,-134.8319 470.9227,-134.9108"/>
</a>
</g>
<g id="a_edge26-label"><a xlink:href="http://example.org/courseCode" xlink:title=":courseCode">
<text text-anchor="middle" x="502.7272" y="-147" font-family="Times,serif" font-size="14.00" fill="#000000">:courseCode</text>
</a>
</g>
</g>
<!-- N1 -->
<g id="node7" class="node">
<title>N1</title>
<g id="a_node7"><a xlink:href="http://example.org/bob" xlink:title=":bob">
<ellipse fill="none" stroke="#000000" cx="113.7391" cy="-106.8" rx="28.4127" ry="18"/>
<text text-anchor="middle" x="113.7391" y="-102.6" font-family="Times,serif" font-size="14.00" fill="#000000">:bob</text>
</a>
</g>
</g>
<!-- N0&#45;&gt;N1 -->
<g id="edge28" class="edge">
<title>N0-&gt;N1</title>
<g id="a_edge28"><a xlink:href="http://example.org/taughtBy" xlink:title=":taughtBy">
<path fill="none" stroke="#000000" d="M434.5645,-183.325C427.7694,-181.1149 420.5829,-179.0547 413.7391,-177.6 328.0764,-159.392 301.6561,-183.8917 217.5161,-159.6 190.5688,-151.8202 162.3469,-136.9632 142.1479,-124.9861"/>
<polygon fill="#000000" stroke="#000000" points="143.8309,-121.9134 133.4653,-119.7215 140.2015,-127.8991 143.8309,-121.9134"/>
</a>
</g>
<g id="a_edge28-label"><a xlink:href="http://example.org/taughtBy" xlink:title=":taughtBy">
<text text-anchor="middle" x="245.3506" y="-147" font-family="Times,serif" font-size="14.00" fill="#000000">:taughtBy</text>
</a>
</g>
</g>
<!-- N5 -->
<g id="node9" class="node">
<title>N5</title>
<g id="a_node9"><a xlink:href="http://example.org/Course" xlink:title=":Course">
<ellipse fill="none" stroke="#000000" cx="559.7391" cy="-106.8" rx="41.149" ry="18"/>
<text text-anchor="middle" x="559.7391" y="-102.6" font-family="Times,serif" font-size="14.00" fill="#000000">:Course</text>
</a>
</g>
</g>
<!-- N0&#45;&gt;N5 -->
<g id="edge24" class="edge">
<title>N0-&gt;N5</title>
<g id="a_edge24"><a xlink:href="http://www.w3.org/1999/02/22-rdf-syntax-ns#type" xlink:title="a">
<path fill="none" stroke="#000000" d="M500.6732,-184.2251C513.6251,-178.5059 527.6791,-170.4386 537.7391,-159.6 544.2673,-152.5666 549.0017,-143.3198 552.3665,-134.5327"/>
<polygon fill="#000000" stroke="#000000" points="555.7191,-135.544 555.6059,-124.9497 549.0878,-133.3022 555.7191,-135.544"/>
</a>
</g>
<g id="a_edge24-label"><a xlink:href="http://www.w3.org/1999/02/22-rdf-syntax-ns#type" xlink:title="a">
<text text-anchor="middle" x="551.8464" y="-147" font-family="Times,serif" font-size="14.00" fill="#000000">a</text>
</a>
</g>
</g>
<!-- N2 -->
<g id="node15" class="node">
<title>N2</title>
<g id="a_node15"><a xlink:href="http://example.org/carol" xlink:title="3.0">
<polygon fill="#ffff00" stroke="#ffff00" points="213.7391,-124.8 159.7391,-124.8 159.7391,-88.8 213.7391,-88.8 213.7391,-124.8"/>
<text text-anchor="middle" x="186.7391" y="-102.6" font-family="Times,serif" font-size="14.00" fill="#000000">3.0</text>
</a>
</g>
</g>
<!-- N0&#45;&gt;N2 -->
<g id="edge27" class="edge">
<title>N0-&gt;N2</title>
<g id="a_edge27"><a xlink:href="http://example.org/credits" xlink:title=":credits">
<path fill="none" stroke="#000000" d="M433.5262,-183.7962C427.0005,-181.6257 420.1809,-179.4605 413.7391,-177.6 380.7196,-168.0636 371.7162,-168.5496 338.5329,-159.6 289.5877,-146.3993 274.3905,-144.7757 223.586,-124.8481"/>
<polygon fill="#000000" stroke="#000000" points="224.6205,-121.4931 214.0347,-121.0542 222.0364,-127.9986 224.6205,-121.4931"/>
</a>
</g>
<g id="a_edge27-label"><a xlink:href="http://example.org/credits" xlink:title=":credits">
<text text-anchor="middle" x="359.3422" y="-147" font-family="Times,serif" font-size="14.00" fill="#000000">:credits</text>
</a>
</g>
</g>
<!-- N13 -->
<g id="node5" class="node">
<title>N13</title>
<g id="a_node5"><a xlink:href="http://example.org/Person" xlink:title=":Person">
<ellipse fill="none" stroke="#000000" cx="628.7391" cy="-18" rx="40.005" ry="18"/>
<text text-anchor="middle" x="628.7391" y="-13.8" font-family="Times,serif" font-size="14.00" fill="#000000">:Person</text>
</a>
</g>
</g>
<!-- N19 -->
<g id="node6" class="node">
<title>N19</title>
<g id="a_node6"><a xlink:href="http://example.org/Person" xlink:title="LD202">
<polygon fill="#ffff00" stroke="#ffff00" points="713.3993,-124.8 658.0789,-124.8 658.0789,-88.8 713.3993,-88.8 713.3993,-124.8"/>
<text text-anchor="middle" x="685.7391" y="-102.6" font-family="Times,serif" font-size="14.00" fill="#000000">LD202</text>
</a>
</g>
</g>
<!-- N1&#45;&gt;N13 -->
<g id="edge17" class="edge">
<title>N1-&gt;N13</title>
<g id="a_edge17"><a xlink:href="http://www.w3.org/1999/02/22-rdf-syntax-ns#type" xlink:title="a">
<path fill="none" stroke="#000000" d="M135.1997,-94.9962C140.1844,-92.6419 145.5524,-90.4039 150.7391,-88.8 302.2293,-41.953 490.5984,-25.6876 578.8026,-20.3831"/>
<polygon fill="#000000" stroke="#000000" points="579.0195,-23.8765 588.8,-19.8034 578.6141,-16.8883 579.0195,-23.8765"/>
</a>
</g>
<g id="a_edge17-label"><a xlink:href="http://www.w3.org/1999/02/22-rdf-syntax-ns#type" xlink:title="a">
<text text-anchor="middle" x="295.8464" y="-58.2" font-family="Times,serif" font-size="14.00" fill="#000000">a</text>
</a>
</g>
</g>
<!-- N11 -->
<g id="node12" class="node">
<title>N11</title>
<g id="a_node12"><a xlink:href="http://example.org/Course" xlink:title="bob@example.org">
<polygon fill="#ffff00" stroke="#ffff00" points="119.7183,-36 -.2401,-36 -.2401,0 119.7183,0 119.7183,-36"/>
<text text-anchor="middle" x="59.7391" y="-13.8" font-family="Times,serif" font-size="14.00" fill="#000000">bob@example.org</text>
</a>
</g>
</g>
<!-- N1&#45;&gt;N11 -->
<g id="edge19" class="edge">
<title>N1-&gt;N11</title>
<g id="a_edge19"><a xlink:href="http://example.org/email" xlink:title=":email">
<path fill="none" stroke="#000000" d="M103.3274,-89.6785C95.6117,-76.9905 84.9454,-59.4503 76.0954,-44.8971"/>
<polygon fill="#000000" stroke="#000000" points="79.0488,-43.0174 70.8625,-36.2917 73.0678,-46.6545 79.0488,-43.0174"/>
</a>
</g>
<g id="a_edge19-label"><a xlink:href="http://example.org/email" xlink:title=":email">
<text text-anchor="middle" x="109.2349" y="-58.2" font-family="Times,serif" font-size="14.00" fill="#000000">:email</text>
</a>
</g>
</g>
<!-- N12 -->
<g id="node22" class="node">
<title>N12</title>
<g id="a_node22"><a xlink:href="http://example.org/course2" xlink:title="Dr. Bob">
<polygon fill="#ffff00" stroke="#ffff00" points="198.343,-36 137.1352,-36 137.1352,0 198.343,0 198.343,-36"/>
<text text-anchor="middle" x="167.7391" y="-13.8" font-family="Times,serif" font-size="14.00" fill="#000000">Dr. Bob</text>
</a>
</g>
</g>
<!-- N1&#45;&gt;N12 -->
<g id="edge18" class="edge">
<title>N1-&gt;N12</title>
<g id="a_edge18"><a xlink:href="http://example.org/name" xlink:title=":name">
<path fill="none" stroke="#000000" d="M124.1508,-89.6785C131.8665,-76.9905 142.5328,-59.4503 151.3828,-44.8971"/>
<polygon fill="#000000" stroke="#000000" points="154.4104,-46.6545 156.6157,-36.2917 148.4294,-43.0174 154.4104,-46.6545"/>
</a>
</g>
<g id="a_edge18-label"><a xlink:href="http://example.org/name" xlink:title=":name">
<text text-anchor="middle" x="162.8443" y="-58.2" font-family="Times,serif" font-size="14.00" fill="#000000">:name</text>
</a>
</g>
</g>
<!-- N7 -->
<g id="node8" class="node">
<title>N7</title>
<g id="a_node8"><a xlink:href="http://example.org/alice" xlink:title=":alice">
<ellipse fill="none" stroke="#000000" cx="831.7391" cy="-284.4" rx="31.8954" ry="18"/>
<text text-anchor="middle" x="831.7391" y="-280.2" font-family="Times,serif" font-size="14.00" fill="#000000">:alice</text>
</a>
</g>
</g>
<!-- N7&#45;&gt;N21 -->
<g id="edge5" class="edge">
<title>N7-&gt;N21</title>
<g id="a_edge5"><a xlink:href="http://example.org/homepage" xlink:title=":homepage">
<path fill="none" stroke="#000000" d="M799.6655,-283.6857C733.8805,-281.7119 579.1912,-274.4529 452.3141,-248.4 414.2223,-240.5782 372.5219,-227.1449 340.628,-215.7858"/>
<polygon fill="#000000" stroke="#000000" points="341.6539,-212.4352 331.0596,-212.3357 339.2795,-219.0202 341.6539,-212.4352"/>
</a>
</g>
<g id="a_edge5-label"><a xlink:href="http://example.org/homepage" xlink:title=":homepage">
<text text-anchor="middle" x="483.4516" y="-235.8" font-family="Times,serif" font-size="14.00" fill="#000000">:homepage</text>
</a>
</g>
</g>
<!-- N7&#45;&gt;N0 -->
<g id="edge7" class="edge">
<title>N7-&gt;N0</title>
<g id="a_edge7"><a xlink:href="http://example.org/enrolledIn" xlink:title=":enrolledIn">
<path fill="none" stroke="#000000" d="M799.8484,-281.9935C736.5755,-276.9413 597.3836,-264.3657 552.3169,-248.4 532.0459,-241.2186 511.4678,-228.7225 495.572,-217.6895"/>
<polygon fill="#000000" stroke="#000000" points="497.4274,-214.7137 487.2544,-211.7536 493.3611,-220.4116 497.4274,-214.7137"/>
</a>
</g>
<g id="a_edge7-label"><a xlink:href="http://example.org/enrolledIn" xlink:title=":enrolledIn">
<text text-anchor="middle" x="583.4502" y="-235.8" font-family="Times,serif" font-size="14.00" fill="#000000">:enrolledIn</text>
</a>
</g>
</g>
<!-- N7&#45;&gt;N13 -->
<g id="edge1" class="edge">
<title>N7-&gt;N13</title>
<g id="a_edge1"><a xlink:href="http://www.w3.org/1999/02/22-rdf-syntax-ns#type" xlink:title="a">
<path fill="none" stroke="#000000" d="M800.0839,-280.9697C758.8681,-274.8097 687.3174,-258.0441 646.7391,-213.6 604.7688,-167.6313 613.4983,-87.7746 621.9655,-45.725"/>
<polygon fill="#000000" stroke="#000000" points="625.3992,-46.4052 624.0815,-35.8926 618.5558,-44.9324 625.3992,-46.4052"/>
</a>
</g>
<g id="a_edge1-label"><a xlink:href="http://www.w3.org/1999/02/22-rdf-syntax-ns#type" xlink:title="a">
<text text-anchor="middle" x="622.8464" y="-147" font-family="Times,serif" font-size="14.00" fill="#000000">a</text>
</a>
</g>
</g>
<!-- N23 -->
<g id="node10" class="node">
<title>N23</title>
<g id="a_node10"><a xlink:href="http://example.org/Course" xlink:title="1990-04-15^^xsd:date">
<polygon fill="#ffff00" stroke="#ffff00" points="902.3445,-213.6 761.1337,-213.6 761.1337,-177.6 902.3445,-177.6 902.3445,-213.6"/>
<text text-anchor="middle" x="831.7391" y="-191.4" font-family="Times,serif" font-size="14.00" fill="#000000">1990-04-15^^xsd:date</text>
</a>
</g>
</g>
<!-- N7&#45;&gt;N23 -->
<g id="edge3" class="edge">
<title>N7-&gt;N23</title>
<g id="a_edge3"><a xlink:href="http://example.org/birthdate" xlink:title=":birthdate">
<path fill="none" stroke="#000000" d="M831.7391,-266.0006C831.7391,-253.8949 831.7391,-237.8076 831.7391,-224.0674"/>
<polygon fill="#000000" stroke="#000000" points="835.2392,-223.672 831.7391,-213.672 828.2392,-223.6721 835.2392,-223.672"/>
</a>
</g>
<g id="a_edge3-label"><a xlink:href="http://example.org/birthdate" xlink:title=":birthdate">
<text text-anchor="middle" x="858.5652" y="-235.8" font-family="Times,serif" font-size="14.00" fill="#000000">:birthdate</text>
</a>
</g>
</g>
<!-- N24 -->
<g id="node18" class="node">
<title>N24</title>
<g id="a_node18"><a xlink:href="http://example.org/Organization" xlink:title="Alice Smith">
<polygon fill="#ffff00" stroke="#ffff00" points="1003.5109,-213.6 919.9673,-213.6 919.9673,-177.6 1003.5109,-177.6 1003.5109,-213.6"/>
<text text-anchor="middle" x="961.7391" y="-191.4" font-family="Times,serif" font-size="14.00" fill="#000000">Alice Smith</text>
</a>
</g>
</g>
<!-- N7&#45;&gt;N24 -->
<g id="edge2" class="edge">
<title>N7-&gt;N24</title>
<g id="a_edge2"><a xlink:href="http://example.org/name" xlink:title=":name">
<path fill="none" stroke="#000000" d="M853.7519,-271.2876C864.6983,-264.6287 878.0526,-256.2947 889.7391,-248.4 903.0976,-239.3758 917.4851,-228.9697 929.8609,-219.7939"/>
<polygon fill="#000000" stroke="#000000" points="932.1474,-222.4548 938.07,-213.67 927.9618,-216.844 932.1474,-222.4548"/>
</a>
</g>
<g id="a_edge2-label"><a xlink:href="http://example.org/name" xlink:title=":name">
<text text-anchor="middle" x="929.8443" y="-235.8" font-family="Times,serif" font-size="14.00" fill="#000000">:name</text>
</a>
</g>
</g>
<!-- N17 -->
<g id="node19" class="node">
<title>N17</title>
<g id="a_node19"><a xlink:href="http://example.org/course2" xlink:title=":course2">
<ellipse fill="none" stroke="#000000" cx="699.7391" cy="-195.6" rx="44.0002" ry="18"/>
<text text-anchor="middle" x="699.7391" y="-191.4" font-family="Times,serif" font-size="14.00" fill="#000000">:course2</text>
</a>
</g>
</g>
<!-- N7&#45;&gt;N17 -->
<g id="edge8" class="edge">
<title>N7-&gt;N17</title>
<g id="a_edge8"><a xlink:href="http://example.org/enrolledIn" xlink:title=":enrolledIn">
<path fill="none" stroke="#000000" d="M807.5554,-272.3332C794.9631,-265.7435 779.4875,-257.157 766.3169,-248.4 752.6425,-239.308 738.2723,-228.1401 726.3967,-218.4205"/>
<polygon fill="#000000" stroke="#000000" points="728.5449,-215.6551 718.613,-211.9663 724.0768,-221.0436 728.5449,-215.6551"/>
</a>
</g>
<g id="a_edge8-label"><a xlink:href="http://example.org/enrolledIn" xlink:title=":enrolledIn">
<text text-anchor="middle" x="797.4502" y="-235.8" font-family="Times,serif" font-size="14.00" fill="#000000">:enrolledIn</text>
</a>
</g>
</g>
<!-- N22 -->
<g id="node21" class="node">
<title>N22</title>
<g id="a_node21"><a xlink:href="http://example.org/course2" xlink:title="alice@example.org">
<polygon fill="#ffff00" stroke="#ffff00" points="1146.1423,-213.6 1021.3359,-213.6 1021.3359,-177.6 1146.1423,-177.6 1146.1423,-213.6"/>
<text text-anchor="middle" x="1083.7391" y="-191.4" font-family="Times,serif" font-size="14.00" fill="#000000">alice@example.org</text>
</a>
</g>
</g>
<!-- N7&#45;&gt;N22 -->
<g id="edge4" class="edge">
<title>N7-&gt;N22</title>
<g id="a_edge4"><a xlink:href="http://example.org/email" xlink:title=":email">
<path fill="none" stroke="#000000" d="M860.8143,-276.3448C885.0441,-269.4554 920.375,-258.999 950.7391,-248.4 977.6578,-239.0037 1007.1708,-227.4206 1031.542,-217.4999"/>
<polygon fill="#000000" stroke="#000000" points="1033.0286,-220.6734 1040.9575,-213.6461 1030.3769,-214.1951 1033.0286,-220.6734"/>
</a>
</g>
<g id="a_edge4-label"><a xlink:href="http://example.org/email" xlink:title=":email">
<text text-anchor="middle" x="1013.2349" y="-235.8" font-family="Times,serif" font-size="14.00" fill="#000000">:email</text>
</a>
</g>
</g>
<!-- N6 -->
<g id="node24" class="node">
<title>N6</title>
<g id="a_node24"><a xlink:href="http://example.org/org1" xlink:title=":org1">
<ellipse fill="none" stroke="#000000" cx="1205.7391" cy="-195.6" rx="31.341" ry="18"/>
<text text-anchor="middle" x="1205.7391" y="-191.4" font-family="Times,serif" font-size="14.00" fill="#000000">:org1</text>
</a>
</g>
</g>
<!-- N7&#45;&gt;N6 -->
<g id="edge6" class="edge">
<title>N7-&gt;N6</title>
<g id="a_edge6"><a xlink:href="http://example.org/worksFor" xlink:title=":worksFor">
<path fill="none" stroke="#000000" d="M863.8709,-282.9757C945.8914,-279.0806 1158.3441,-267.2668 1183.7391,-248.4 1191.8176,-242.3982 1196.9478,-232.8737 1200.1978,-223.5562"/>
<polygon fill="#000000" stroke="#000000" points="1203.6312,-224.2815 1203.0372,-213.7034 1196.9049,-222.3431 1203.6312,-224.2815"/>
</a>
</g>
<g id="a_edge6-label"><a xlink:href="http://example.org/worksFor" xlink:title=":worksFor">
<text text-anchor="middle" x="1226.5119" y="-235.8" font-family="Times,serif" font-size="14.00" fill="#000000">:worksFor</text>
</a>
</g>
</g>
<!-- N9 -->
<g id="node11" class="node">
<title>N9</title>
<g id="a_node11"><a xlink:href="http://example.org/Course" xlink:title="Example University">
<polygon fill="#ffff00" stroke="#ffff00" points="1194.1008,-124.8 1065.3774,-124.8 1065.3774,-88.8 1194.1008,-88.8 1194.1008,-124.8"/>
<text text-anchor="middle" x="1129.7391" y="-102.6" font-family="Times,serif" font-size="14.00" fill="#000000">Example University</text>
</a>
</g>
</g>
<!-- N18 -->
<g id="node13" class="node">
<title>N18</title>
<g id="a_node13"><a xlink:href="http://example.org/Course" xlink:title="2.5">
<polygon fill="#ffff00" stroke="#ffff00" points="785.7391,-124.8 731.7391,-124.8 731.7391,-88.8 785.7391,-88.8 785.7391,-124.8"/>
<text text-anchor="middle" x="758.7391" y="-102.6" font-family="Times,serif" font-size="14.00" fill="#000000">2.5</text>
</a>
</g>
</g>
<!-- N14 -->
<g id="node14" class="node">
<title>N14</title>
<g id="a_node14"><a xlink:href="http://example.org/carol" xlink:title=":carol">
<ellipse fill="none" stroke="#000000" cx="1014.7391" cy="-106.8" rx="33.0411" ry="18"/>
<text text-anchor="middle" x="1014.7391" y="-102.6" font-family="Times,serif" font-size="14.00" fill="#000000">:carol</text>
</a>
</g>
</g>
<!-- N14&#45;&gt;N13 -->
<g id="edge14" class="edge">
<title>N14-&gt;N13</title>
<g id="a_edge14"><a xlink:href="http://www.w3.org/1999/02/22-rdf-syntax-ns#type" xlink:title="a">
<path fill="none" stroke="#000000" d="M989.2836,-94.9199C983.8958,-92.6811 978.1891,-90.5094 972.7391,-88.8 869.7447,-56.4954 744.6947,-35.0128 677.3449,-24.833"/>
<polygon fill="#000000" stroke="#000000" points="677.4503,-21.31 667.0433,-23.2963 676.4175,-28.2334 677.4503,-21.31"/>
</a>
</g>
<g id="a_edge14-label"><a xlink:href="http://www.w3.org/1999/02/22-rdf-syntax-ns#type" xlink:title="a">
<text text-anchor="middle" x="911.8464" y="-58.2" font-family="Times,serif" font-size="14.00" fill="#000000">a</text>
</a>
</g>
</g>
<!-- N16 -->
<g id="node17" class="node">
<title>N16</title>
<g id="a_node17"><a xlink:href="http://example.org/Organization" xlink:title="Prof. Carol">
<polygon fill="#ffff00" stroke="#ffff00" points="993.9456,-36 915.5326,-36 915.5326,0 993.9456,0 993.9456,-36"/>
<text text-anchor="middle" x="954.7391" y="-13.8" font-family="Times,serif" font-size="14.00" fill="#000000">Prof. Carol</text>
</a>
</g>
</g>
<!-- N14&#45;&gt;N16 -->
<g id="edge15" class="edge">
<title>N14-&gt;N16</title>
<g id="a_edge15"><a xlink:href="http://example.org/name" xlink:title=":name">
<path fill="none" stroke="#000000" d="M1003.1705,-89.6785C994.5976,-76.9905 982.7461,-59.4503 972.9128,-44.8971"/>
<polygon fill="#000000" stroke="#000000" points="975.5971,-42.6181 967.0984,-36.2917 969.7969,-46.5372 975.5971,-42.6181"/>
</a>
</g>
<g id="a_edge15-label"><a xlink:href="http://example.org/name" xlink:title=":name">
<text text-anchor="middle" x="1007.8443" y="-58.2" font-family="Times,serif" font-size="14.00" fill="#000000">:name</text>
</a>
</g>
</g>
<!-- N15 -->
<g id="node20" class="node">
<title>N15</title>
<g id="a_node20"><a xlink:href="http://example.org/course2" xlink:title="carol@example.org">
<polygon fill="#ffff00" stroke="#ffff00" points="1138.1985,-36 1011.2797,-36 1011.2797,0 1138.1985,0 1138.1985,-36"/>
<text text-anchor="middle" x="1074.7391" y="-13.8" font-family="Times,serif" font-size="14.00" fill="#000000">carol@example.org</text>
</a>
</g>
</g>
<!-- N14&#45;&gt;N15 -->
<g id="edge16" class="edge">
<title>N14-&gt;N15</title>
<g id="a_edge16"><a xlink:href="http://example.org/email" xlink:title=":email">
<path fill="none" stroke="#000000" d="M1026.3077,-89.6785C1034.8806,-76.9905 1046.7321,-59.4503 1056.5654,-44.8971"/>
<polygon fill="#000000" stroke="#000000" points="1059.6813,-46.5372 1062.3798,-36.2917 1053.8811,-42.6181 1059.6813,-46.5372"/>
</a>
</g>
<g id="a_edge16-label"><a xlink:href="http://example.org/email" xlink:title=":email">
<text text-anchor="middle" x="1068.2349" y="-58.2" font-family="Times,serif" font-size="14.00" fill="#000000">:email</text>
</a>
</g>
</g>
<!-- N10 -->
<g id="node16" class="node">
<title>N10</title>
<g id="a_node16"><a xlink:href="http://example.org/Organization" xlink:title=":Organization">
<ellipse fill="none" stroke="#000000" cx="1275.7391" cy="-106.8" rx="64.263" ry="18"/>
<text text-anchor="middle" x="1275.7391" y="-102.6" font-family="Times,serif" font-size="14.00" fill="#000000">:Organization</text>
</a>
</g>
</g>
<!-- N17&#45;&gt;N19 -->
<g id="edge11" class="edge">
<title>N17-&gt;N19</title>
<g id="a_edge11"><a xlink:href="http://example.org/courseCode" xlink:title=":courseCode">
<path fill="none" stroke="#000000" d="M691.953,-177.6065C689.8614,-171.9503 687.8732,-165.6104 686.7629,-159.6 685.3202,-151.79 684.7366,-143.2199 684.5959,-135.2983"/>
<polygon fill="#000000" stroke="#000000" points="688.0969,-135.0452 684.6395,-125.0304 681.097,-135.0154 688.0969,-135.0452"/>
</a>
</g>
<g id="a_edge11-label"><a xlink:href="http://example.org/courseCode" xlink:title=":courseCode">
<text text-anchor="middle" x="722.7272" y="-147" font-family="Times,serif" font-size="14.00" fill="#000000">:courseCode</text>
</a>
</g>
</g>
<!-- N17&#45;&gt;N5 -->
<g id="edge9" class="edge">
<title>N17-&gt;N5</title>
<g id="a_edge9"><a xlink:href="http://www.w3.org/1999/02/22-rdf-syntax-ns#type" xlink:title="a">
<path fill="none" stroke="#000000" d="M681.8417,-179.1329C669.2502,-168.0439 651.6859,-153.5399 634.7391,-142.8 623.5727,-135.7234 610.8034,-129.105 599.0049,-123.5218"/>
<polygon fill="#000000" stroke="#000000" points="600.3468,-120.2864 589.8001,-119.2772 597.4155,-126.6432 600.3468,-120.2864"/>
</a>
</g>
<g id="a_edge9-label"><a xlink:href="http://www.w3.org/1999/02/22-rdf-syntax-ns#type" xlink:title="a">
<text text-anchor="middle" x="660.8464" y="-147" font-family="Times,serif" font-size="14.00" fill="#000000">a</text>
</a>
</g>
</g>
<!-- N17&#45;&gt;N18 -->
<g id="edge12" class="edge">
<title>N17-&gt;N18</title>
<g id="a_edge12"><a xlink:href="http://example.org/credits" xlink:title=":credits">
<path fill="none" stroke="#000000" d="M731.2323,-182.9163C741.1199,-177.2988 750.9548,-169.6402 756.7391,-159.6 760.9248,-152.3346 762.3764,-143.526 762.5128,-135.2027"/>
<polygon fill="#000000" stroke="#000000" points="766.004,-134.9167 762.0889,-125.0718 759.0101,-135.2094 766.004,-134.9167"/>
</a>
</g>
<g id="a_edge12-label"><a xlink:href="http://example.org/credits" xlink:title=":credits">
<text text-anchor="middle" x="783.3422" y="-147" font-family="Times,serif" font-size="14.00" fill="#000000">:credits</text>
</a>
</g>
</g>
<!-- N17&#45;&gt;N14 -->
<g id="edge13" class="edge">
<title>N17-&gt;N14</title>
<g id="a_edge13"><a xlink:href="http://example.org/taughtBy" xlink:title=":taughtBy">
<path fill="none" stroke="#000000" d="M732.1913,-183.3188C738.6056,-181.19 745.3351,-179.1623 751.7391,-177.6 805.414,-164.506 821.1168,-172.9078 874.7391,-159.6 919.5984,-148.467 929.698,-141.6454 972.7391,-124.8 974.8399,-123.9778 976.9922,-123.1161 979.1587,-122.2339"/>
<polygon fill="#000000" stroke="#000000" points="980.7433,-125.3656 988.6321,-118.2933 978.0548,-118.9025 980.7433,-125.3656"/>
</a>
</g>
<g id="a_edge13-label"><a xlink:href="http://example.org/taughtBy" xlink:title=":taughtBy">
<text text-anchor="middle" x="955.3506" y="-147" font-family="Times,serif" font-size="14.00" fill="#000000">:taughtBy</text>
</a>
</g>
</g>
<!-- N20 -->
<g id="node25" class="node">
<title>N20</title>
<g id="a_node25"><a xlink:href="http://example.org/org1" xlink:title="Linked Data Applications">
<polygon fill="#ffff00" stroke="#ffff00" points="963.8665,-124.8 803.6117,-124.8 803.6117,-88.8 963.8665,-88.8 963.8665,-124.8"/>
<text text-anchor="middle" x="883.7391" y="-102.6" font-family="Times,serif" font-size="14.00" fill="#000000">Linked Data Applications</text>
</a>
</g>
</g>
<!-- N17&#45;&gt;N20 -->
<g id="edge10" class="edge">
<title>N17-&gt;N20</title>
<g id="a_edge10"><a xlink:href="http://example.org/name" xlink:title=":name">
<path fill="none" stroke="#000000" d="M733.2688,-183.8709C739.4049,-181.7594 745.7582,-179.5961 751.7391,-177.6 776.5375,-169.3237 784.3031,-171.1849 807.7391,-159.6 823.5707,-151.7742 839.8187,-140.9342 853.2067,-131.1113"/>
<polygon fill="#000000" stroke="#000000" points="855.6601,-133.6463 861.5584,-124.8451 851.459,-128.047 855.6601,-133.6463"/>
</a>
</g>
<g id="a_edge10-label"><a xlink:href="http://example.org/name" xlink:title=":name">
<text text-anchor="middle" x="853.8443" y="-147" font-family="Times,serif" font-size="14.00" fill="#000000">:name</text>
</a>
</g>
</g>
<!-- N8 -->
<g id="node23" class="node">
<title>N8</title>
<g id="a_node23"><a xlink:href="http://example.org/course2" xlink:title="5000">
<polygon fill="#ffff00" stroke="#ffff00" points="1411.7391,-124.8 1357.7391,-124.8 1357.7391,-88.8 1411.7391,-88.8 1411.7391,-124.8"/>
<text text-anchor="middle" x="1384.7391" y="-102.6" font-family="Times,serif" font-size="14.00" fill="#000000">5000</text>
</a>
</g>
</g>
<!-- N6&#45;&gt;N7 -->
<g id="edge23" class="edge">
<title>N6-&gt;N7</title>
<g id="a_edge23"><a xlink:href="http://example.org/employs" xlink:title=":employs">
<path fill="none" stroke="#000000" d="M1179.1029,-205.3236C1171.2837,-208.0904 1162.6954,-211.0446 1154.7391,-213.6 1101.8685,-230.5811 1088.8216,-235.8005 1034.7391,-248.4 979.1437,-261.352 914.032,-272.1382 872.8382,-278.4303"/>
<polygon fill="#000000" stroke="#000000" points="872.2658,-274.977 862.9009,-279.9317 873.3116,-281.8984 872.2658,-274.977"/>
</a>
</g>
<g id="a_edge23-label"><a xlink:href="http://example.org/employs" xlink:title=":employs">
<text text-anchor="middle" x="1123.4046" y="-235.8" font-family="Times,serif" font-size="14.00" fill="#000000">:employs</text>
</a>
</g>
</g>
<!-- N6&#45;&gt;N9 -->
<g id="edge21" class="edge">
<title>N6-&gt;N9</title>
<g id="a_edge21"><a xlink:href="http://example.org/legalName" xlink:title=":legalName">
<path fill="none" stroke="#000000" d="M1187.5992,-180.6351C1180.5764,-174.4534 1172.6866,-167.008 1166.2117,-159.6 1159.2464,-151.631 1152.428,-142.3053 1146.6067,-133.7273"/>
<polygon fill="#000000" stroke="#000000" points="1149.37,-131.5605 1140.9368,-125.1471 1143.5299,-135.4197 1149.37,-131.5605"/>
</a>
</g>
<g id="a_edge21-label"><a xlink:href="http://example.org/legalName" xlink:title=":legalName">
<text text-anchor="middle" x="1199.0028" y="-147" font-family="Times,serif" font-size="14.00" fill="#000000">:legalName</text>
</a>
</g>
</g>
<!-- N6&#45;&gt;N10 -->
<g id="edge20" class="edge">
<title>N6-&gt;N10</title>
<g id="a_edge20"><a xlink:href="http://www.w3.org/1999/02/22-rdf-syntax-ns#type" xlink:title="a">
<path fill="none" stroke="#000000" d="M1218.9056,-178.8974C1229.1977,-165.8411 1243.6837,-147.4646 1255.4547,-132.5323"/>
<polygon fill="#000000" stroke="#000000" points="1258.2288,-134.6666 1261.6709,-124.6465 1252.7315,-130.3331 1258.2288,-134.6666"/>
</a>
</g>
<g id="a_edge20-label"><a xlink:href="http://www.w3.org/1999/02/22-rdf-syntax-ns#type" xlink:title="a">
<text text-anchor="middle" x="1250.8464" y="-147" font-family="Times,serif" font-size="14.00" fill="#000000">a</text>
</a>
</g>
</g>
<!-- N6&#45;&gt;N8 -->
<g id="edge22" class="edge">
<title>N6-&gt;N8</title>
<g id="a_edge22"><a xlink:href="http://example.org/headcount" xlink:title=":headcount">
<path fill="none" stroke="#000000" d="M1229.79,-183.7281C1256.4972,-170.5372 1301.121,-148.4742 1348.4396,-124.9412"/>
<polygon fill="#000000" stroke="#000000" points="1350.2239,-127.9628 1357.618,-120.3748 1347.1058,-121.6955 1350.2239,-127.9628"/>
</a>
</g>
<g id="a_edge22-label"><a xlink:href="http://example.org/headcount" xlink:title=":headcount">
<text text-anchor="middle" x="1340.4516" y="-147" font-family="Times,serif" font-size="14.00" fill="#000000">:headcount</text>
</a>
</g>
</g>
</g>
</svg>